<svg width="238" height="86" viewBox="0 0 238 86" fill="none" xmlns="http://www.w3.org/2000/svg">
<path d="M1.25 76.3809V0L62.0441 76.3809H1.25Z" fill="#1A1A18"/>
<path d="M62.0441 76.381V21.0048L113.485 76.381H62.0441Z" fill="#888780"/>
<path d="M1.25 84.0191H113.485" stroke="#1A1A18" stroke-width="2.5" stroke-linecap="round"/>
<path d="M165.624 48.0386L161.709 49.1466C161.463 48.4941 161.1 47.8601 160.619 47.2446C160.152 46.6168 159.511 46.0997 158.699 45.6935C157.886 45.2872 156.846 45.0841 155.578 45.0841C153.842 45.0841 152.396 45.4842 151.239 46.2844C150.094 47.0723 149.521 48.0756 149.521 49.2943C149.521 50.3777 149.915 51.2332 150.703 51.8611C151.491 52.4889 152.722 53.0121 154.396 53.4307L158.607 54.4648C161.143 55.0803 163.032 56.0221 164.276 57.2901C165.519 58.5457 166.141 60.1646 166.141 62.1466C166.141 63.7716 165.673 65.2242 164.737 66.5045C163.814 67.7849 162.521 68.7943 160.859 69.533C159.198 70.2716 157.265 70.6409 155.061 70.6409C152.168 70.6409 149.774 70.0131 147.878 68.7574C145.982 67.5017 144.782 65.6674 144.277 63.2545L148.413 62.2205C148.807 63.747 149.552 64.8919 150.648 65.6551C151.756 66.4184 153.202 66.8 154.987 66.8C157.019 66.8 158.631 66.3691 159.825 65.5074C161.032 64.6333 161.635 63.5869 161.635 62.3682C161.635 61.3833 161.29 60.5585 160.601 59.8938C159.912 59.2167 158.853 58.7119 157.425 58.3795L152.698 57.2716C150.1 56.6561 148.192 55.702 146.973 54.4094C145.767 53.1045 145.163 51.4733 145.163 49.5159C145.163 47.9155 145.613 46.4998 146.511 45.2688C147.422 44.0377 148.66 43.0713 150.223 42.3696C151.799 41.6679 153.584 41.317 155.578 41.317C158.385 41.317 160.589 41.9326 162.189 43.1636C163.802 44.3947 164.947 46.0197 165.624 48.0386ZM181.047 70.7148C179.25 70.7148 177.619 70.3762 176.154 69.6992C174.689 69.0098 173.526 68.0188 172.664 66.7261C171.802 65.4212 171.371 63.8455 171.371 61.9989C171.371 60.3739 171.691 59.0566 172.331 58.0472C172.972 57.0254 173.827 56.2252 174.898 55.6466C175.969 55.068 177.151 54.6371 178.444 54.354C179.749 54.0585 181.06 53.8246 182.377 53.6523C184.1 53.4307 185.498 53.2645 186.569 53.1537C187.652 53.0306 188.44 52.8275 188.932 52.5443C189.437 52.2612 189.689 51.7688 189.689 51.067V50.9193C189.689 49.0974 189.191 47.6816 188.194 46.6722C187.209 45.6627 185.713 45.158 183.706 45.158C181.626 45.158 179.995 45.6134 178.813 46.5244C177.631 47.4354 176.8 48.408 176.32 49.442L172.184 47.9648C172.922 46.2413 173.907 44.8994 175.138 43.9392C176.382 42.9667 177.736 42.2896 179.201 41.908C180.678 41.514 182.131 41.317 183.559 41.317C184.47 41.317 185.516 41.4278 186.698 41.6494C187.892 41.8587 189.043 42.2957 190.151 42.9605C191.271 43.6253 192.201 44.6286 192.939 45.9705C193.678 47.3123 194.047 49.1097 194.047 51.3625V70.05H189.689V66.2091H189.468C189.172 66.8246 188.68 67.4832 187.991 68.1849C187.301 68.8867 186.384 69.4837 185.239 69.9761C184.094 70.4686 182.697 70.7148 181.047 70.7148ZM181.712 66.8C183.436 66.8 184.888 66.4615 186.07 65.7844C187.264 65.1073 188.163 64.2332 188.766 63.1622C189.382 62.0912 189.689 60.9648 189.689 59.783V55.7943C189.505 56.0159 189.098 56.219 188.471 56.4037C187.855 56.576 187.141 56.7299 186.329 56.8653C185.528 56.9884 184.747 57.0992 183.983 57.1977C183.232 57.2839 182.623 57.3578 182.155 57.4193C181.023 57.567 179.964 57.8071 178.979 58.1395C178.007 58.4596 177.219 58.9458 176.616 59.5983C176.025 60.2384 175.729 61.1125 175.729 62.2205C175.729 63.7347 176.289 64.8795 177.41 65.6551C178.542 66.4184 179.976 66.8 181.712 66.8ZM202.002 70.05V41.6864H206.359V70.05H202.002ZM204.217 36.9591C203.368 36.9591 202.636 36.6698 202.02 36.0912C201.417 35.5126 201.115 34.817 201.115 34.0045C201.115 33.192 201.417 32.4965 202.02 31.9179C202.636 31.3393 203.368 31.05 204.217 31.05C205.067 31.05 205.793 31.3393 206.396 31.9179C207.012 32.4965 207.32 33.192 207.32 34.0045C207.32 34.817 207.012 35.5126 206.396 36.0912C205.793 36.6698 205.067 36.9591 204.217 36.9591ZM218.699 32.2318V70.05H214.341V32.2318H218.699Z" fill="#1A1A18"/>
</svg>
